<svg width="34" height="34" viewBox="0 0 34 34" fill="none" xmlns="http://www.w3.org/2000/svg">
<path d="M17 3.47413C21.4055 3.47413 21.928 3.49063 23.6688 3.57037C28.1403 3.77387 30.2289 5.8955 30.4324 10.334C30.5121 12.0734 30.5272 12.5959 30.5272 17.0014C30.5272 21.4083 30.5107 21.9294 30.4324 23.6688C30.2275 28.1031 28.1444 30.2289 23.6688 30.4324C21.928 30.5121 21.4083 30.5286 17 30.5286C12.5945 30.5286 12.072 30.5121 10.3326 30.4324C5.85012 30.2275 3.7725 28.0963 3.569 23.6674C3.48925 21.928 3.47275 21.4069 3.47275 17C3.47275 12.5945 3.49063 12.0734 3.569 10.3326C3.77388 5.8955 5.857 3.7725 10.3326 3.569C12.0734 3.49063 12.5945 3.47413 17 3.47413ZM17 0.5C12.5189 0.5 11.9579 0.51925 10.1979 0.599C4.20563 0.874 0.875375 4.19875 0.600375 10.1965C0.51925 11.9579 0.5 12.5189 0.5 17C0.5 21.4811 0.51925 22.0435 0.599 23.8035C0.874 29.7957 4.19875 33.126 10.1965 33.401C11.9579 33.4808 12.5189 33.5 17 33.5C21.4811 33.5 22.0435 33.4808 23.8035 33.401C29.7903 33.126 33.1287 29.8013 33.3996 23.8035C33.4808 22.0435 33.5 21.4811 33.5 17C33.5 12.5189 33.4808 11.9579 33.401 10.1979C33.1315 4.21112 29.8026 0.875375 23.8049 0.600375C22.0435 0.51925 21.4811 0.5 17 0.5V0.5ZM17 8.52725C12.3209 8.52725 8.52725 12.3209 8.52725 17C8.52725 21.6791 12.3209 25.4741 17 25.4741C21.6791 25.4741 25.4728 21.6805 25.4728 17C25.4728 12.3209 21.6791 8.52725 17 8.52725ZM17 22.5C13.9626 22.5 11.5 20.0387 11.5 17C11.5 13.9626 13.9626 11.5 17 11.5C20.0374 11.5 22.5 13.9626 22.5 17C22.5 20.0387 20.0374 22.5 17 22.5ZM25.8083 6.21313C24.7138 6.21313 23.8269 7.1 23.8269 8.19312C23.8269 9.28625 24.7138 10.1731 25.8083 10.1731C26.9014 10.1731 27.7869 9.28625 27.7869 8.19312C27.7869 7.1 26.9014 6.21313 25.8083 6.21313Z" fill="#D3D5D2"/>
</svg>
