<svg width="34" height="34" viewBox="0 0 34 34" fill="none" xmlns="http://www.w3.org/2000/svg">
<path d="M26.625 0.5H7.375C3.57863 0.5 0.5 3.57863 0.5 7.375V26.625C0.5 30.4214 3.57863 33.5 7.375 33.5H26.625C30.4228 33.5 33.5 30.4214 33.5 26.625V7.375C33.5 3.57863 30.4228 0.5 26.625 0.5ZM11.5 26.625H7.375V11.5H11.5V26.625ZM9.4375 9.7565C8.10925 9.7565 7.03125 8.67025 7.03125 7.331C7.03125 5.99175 8.10925 4.9055 9.4375 4.9055C10.7657 4.9055 11.8438 5.99175 11.8438 7.331C11.8438 8.67025 10.7671 9.7565 9.4375 9.7565ZM28 26.625H23.875V18.9195C23.875 14.2885 18.375 14.6391 18.375 18.9195V26.625H14.25V11.5H18.375V13.9269C20.2945 10.3711 28 10.1085 28 17.3314V26.625Z" fill="#D3D5D2"/>
</svg>
